<svg xmlns="http://www.w3.org/2000/svg" viewBox="0 0 728.31 239.87"><defs><style>.cls-1{fill:#ffa300;}.cls-2{fill:#30384f;}</style></defs><title>Element 3</title><g id="Ebene_2" data-name="Ebene 2"><g id="Ebene_1-2" data-name="Ebene 1"><path class="cls-1" d="M592.45,109.45a10.37,10.37,0,0,0-9.15.89,17,17,0,0,0-4.41,4.13,30.53,30.53,0,0,0-3.46,5.86,47.58,47.58,0,0,0-2.49,6.79,51.54,51.54,0,0,0-1.47,6.94,43.72,43.72,0,0,0-.46,6.24,24,24,0,0,0,.45,4.9,10.65,10.65,0,0,0,1.16,3.19,4.35,4.35,0,0,0,1.74,1.72,4.75,4.75,0,0,0,2.2.51,7.39,7.39,0,0,0,4.59-2,22.33,22.33,0,0,0,4.43-5.1,42.86,42.86,0,0,0,3.7-7.12,43.75,43.75,0,0,0,2.46-8l3.47-16.84A5.85,5.85,0,0,0,592.45,109.45Z"/><path class="cls-1" d="M721.81,81.41a119.66,119.66,0,0,0-232.38,49.46l-42.75,46.28,60.22,6.09A119.66,119.66,0,0,0,721.81,81.41Zm-180.42,68.2a3.09,3.09,0,0,0,2.6,1.17,7.12,7.12,0,0,0,2.92-.61,22,22,0,0,0,3.06-1.75l2.44,3.4a27.25,27.25,0,0,1-2.71,2.56,19.5,19.5,0,0,1-7.65,3.88,20.58,20.58,0,0,1-5.09.62q-5.84,0-9-2.7a9.66,9.66,0,0,1-3.16-7.63,62.48,62.48,0,0,1,1.57-12.08L535,94.86q.15-.64.29-1.34t.24-1.31q.1-.62.14-1.06c0-.3,0-.51,0-.64a6.85,6.85,0,0,0-.31-2.23,2.54,2.54,0,0,0-.95-1.28,3.88,3.88,0,0,0-1.69-.58,17.84,17.84,0,0,0-2.48-.14h-2.13l.91-5.35,24.5-.13-11.78,55.69q-.58,2.78-1,5.18a27.82,27.82,0,0,0-.37,4.53A5.5,5.5,0,0,0,541.39,149.61Zm71.27,4.89a26,26,0,0,1-3.63,2,25.42,25.42,0,0,1-4.35,1.48,21.56,21.56,0,0,1-5.07.6,11.7,11.7,0,0,1-7.24-2,7.06,7.06,0,0,1-2.75-6q0-1.58.13-3.09t.53-3.49h-.69a71.55,71.55,0,0,1-3.7,6.28,21.19,21.19,0,0,1-4.11,4.62,16.48,16.48,0,0,1-5.06,2.85,19.94,19.94,0,0,1-6.5,1,13.59,13.59,0,0,1-6.34-1.38,12.85,12.85,0,0,1-4.55-3.86,17.62,17.62,0,0,1-2.75-5.85,28.08,28.08,0,0,1-1-7.34,40.06,40.06,0,0,1,.87-8.29,44.25,44.25,0,0,1,2.7-8.55,44.75,44.75,0,0,1,4.49-8,33.36,33.36,0,0,1,6.2-6.71,29.58,29.58,0,0,1,7.87-4.62,25.8,25.8,0,0,1,9.49-1.76,26.15,26.15,0,0,1,4,.3,39.77,39.77,0,0,1,3.94.8q1.88.48,3.54,1.09a20,20,0,0,1,2.8,1.25l5.33-2.45,5.39,0-6.51,31.66q-.19.84-.48,2.23t-.55,2.95q-.26,1.56-.45,3a18.77,18.77,0,0,0-.19,2.45,6,6,0,0,0,1,3.76,3.14,3.14,0,0,0,2.58,1.22,6.36,6.36,0,0,0,2.74-.63q1.31-.63,2.89-1.52l2.25,4Q614.29,153.43,612.66,154.5Zm86.28-33.1a72,72,0,0,1-5.87,11.93,119.15,119.15,0,0,1-8.45,12.12q-4.77,6-9.84,11.61l-12.37,1.16q0-3.12-.11-6.75t-.19-7.5l-.19-7.72q-.1-3.86-.21-7.37t-.23-6.48q-.12-3-.18-5.1-3.91,9.42-9,19.57A185.34,185.34,0,0,1,640.64,157l-13.26,1-1.26-42.16a11.53,11.53,0,0,0-.61-3.76,5.63,5.63,0,0,0-1.47-2.24,4.71,4.71,0,0,0-2.18-1.08,13.07,13.07,0,0,0-2.75-.26h-.59l1.6-5.4,19.55-.1q.32,5,.6,10.07t.45,9.4q.17,4.38.29,7.87t.13,5.52q0,3.86,0,6.21t0,2.6h.74q2.5-4,5-8.79t4.94-10q2.45-5.26,4.79-10.84T661,103.84l12.37-.46q.31,2.52.6,6.18t.56,7.82q.27,4.16.52,8.51t.44,8.24q.19,3.88.31,7T676,146h.69q4.43-5.52,7.32-10a64.48,64.48,0,0,0,4.58-8.12,34.61,34.61,0,0,0,2.36-6.64,24.36,24.36,0,0,0,.66-5.5,7.54,7.54,0,0,0-.46-2.67,7.47,7.47,0,0,0-1.15-2,5.6,5.6,0,0,0-1.62-1.38,7.77,7.77,0,0,0-1.86-.76,9,9,0,0,1,.8-3.3,6.87,6.87,0,0,1,1.67-2.24,6.43,6.43,0,0,1,2.29-1.27,9.22,9.22,0,0,1,2.72-.41,6.42,6.42,0,0,1,5.23,2.2,9.72,9.72,0,0,1,1.89,6.37A31.13,31.13,0,0,1,698.94,121.4Z"/><path class="cls-2" d="M101,183.93c-22.84,0-28.55-16.58-20.39-40.24,9-26.37,32.62-54.65,28.28-57.1-3.81-2.17-33.44,16.31-49.21,42.14-9.79,16-19.85,35.07-26.37,51.66-1.09,2.45-3,3-4.62,1.09-4.35-4.89-6.8-12.51-1.09-28.82C37.11,125.48,93.66,29.78,115.68,2.32c2.45-3.26,5.17-3,6.53.27,3.53,7.88,2.72,21.48-7.61,38.61C108.07,52.07,93.66,74.09,82,92.31c11.15-10.87,25.28-19.85,32.62-19,9.24,1.09,17.67,14.68,10.6,28.55-6,12-19,31.81-25.29,45.95-6.8,15.77-5.44,28.55,4.62,28,11.15-.54,26.1-20.12,34.53-37.52,1.09-2.45,3.81-2.45,4.89-.27,1.36,3,1.36,8.7-2.72,16.86C133.63,170.34,117,183.93,101,183.93Z"/><path class="cls-2" d="M172.5,176c22.57,1.09,42.41-20.66,54.1-38.61,1.36-2.17,3.54-2.17,4.62.27,1.09,2.17.27,9.79-4.62,16.86-11.42,16.58-32.35,29.09-53.29,29.36-34.53.54-46.49-33.44-28.82-68.51s45.4-49.21,59-41.33c6.8,4.08,11.69,8.16,16,14.14,4.89,6.53,2.72,23.11-8.7,37-13.32,16.31-31.54,23.38-50.57,7.88C151.57,158.1,158.09,175.23,172.5,176Zm22.57-62.53C203.77,102.1,209.75,88,205.95,85c-5.71-4.62-28.28,11.69-41.05,37.52-.82,1.63-1.63,3.26-2.17,4.62C176,135.54,187.19,123.85,195.07,113.51Z"/><path class="cls-2" d="M247.27,175.5c13.05,1.09,32.08-18.49,42.69-39.42,1.9-3.53,4.89-3.81,6,0,1.36,4.35.27,10.33-2.72,16.86-3.81,8.16-23.65,30.72-45.4,30.18-18.76-.54-28.82-13.59-22.57-43C235.3,92.85,266.3,43.64,294,14.82c4.08-4.35,7.88-4.89,11.69-1.36,7.88,7.07,9.52,17.13,6.25,29.91-8.43,33.44-38.88,66.07-63.08,81.84C238,151.85,235,174.42,247.27,175.5ZM302.73,37.66c-3.53-2.18-23.65,28-42.41,62.8q-3.67,6.53-6.53,13.05C291,83.34,306.27,39.83,302.73,37.66Z"/><path class="cls-2" d="M309.8,175.5c13.05,1.09,32.08-18.49,42.69-39.42,1.9-3.53,4.89-3.81,6,0,1.36,4.35.27,10.33-2.72,16.86-3.81,8.16-23.65,30.72-45.4,30.18-18.76-.54-28.82-13.59-22.57-43,10.06-47.31,41.05-96.52,68.79-125.34,4.08-4.35,7.88-4.89,11.69-1.36,7.88,7.07,9.52,17.13,6.25,29.91-8.43,33.44-38.88,66.07-63.08,81.84C300.55,151.85,297.56,174.42,309.8,175.5ZM365.26,37.66c-3.53-2.18-23.65,28-42.41,62.8q-3.67,6.53-6.53,13.05C353.57,83.34,368.8,39.83,365.26,37.66Z"/><path class="cls-2" d="M433,124.66c-5.71,23.11-22.84,50.57-43,57.37-9.79,3.26-23.38,2.18-34.26-12-12-15.77-7.88-39.42,4.35-61.17C370.42,90.4,387,74.64,403.32,73.55c8.43-.54,13,1.9,18.49,9.24,6.25,8.43,14.41,10.33,12.78,29.91-.27,2.18-.27,4.08-.54,6.25,1.63,0,3.26-.54,5.44-.54,1.9,0,1.9,1.36.82,2.72A11.08,11.08,0,0,1,433,124.66Zm-23.11-6.8c-5.71-4.35-12.23-13.87-12.51-23.93a95.11,95.11,0,0,0-20.94,25.56c-11.42,20.66-15.5,45.68-8.43,51.66,7.61,6.25,24.2-3.26,37.52-28.28A143.43,143.43,0,0,0,415,121.13,20.68,20.68,0,0,1,409.85,117.86Zm9.24-24.2c-1.36-8.7-6.8-7.07-8.16.82-1.36,7.34,1.63,15.23,6,19.3C419.09,105.36,419.91,98.56,419.09,93.67Z"/><path class="cls-1" d="M5.76,235.33Q180.21,221.71,355.36,222q49.71.11,99.4,1.36c7.72.19,7.72-11.81,0-12q-174.92-4.35-349.8,5.3-49.64,2.75-99.2,6.63c-7.65.6-7.71,12.6,0,12Z"/></g></g></svg>